<svg xmlns="http://www.w3.org/2000/svg" width="1600" height="1816" viewBox="0 0 1600 1816">
<defs><pattern id="missing" width="12" height="12" patternUnits="userSpaceOnUse" patternTransform="rotate(45)"><rect width="12" height="12" fill="#fff"/><rect width="5" height="12" fill="#eef0ed"/></pattern></defs>
<style>text{font-family:ui-monospace,SFMono-Regular,Menlo,monospace;fill:#17231d}.tag{font-size:14px;font-weight:900;letter-spacing:2px;fill:#0f766e}.title{font-family:Georgia,serif;font-size:42px;font-weight:700}.meta{font-size:16px;fill:#647168}.audit-title{font-size:13px;font-weight:900;letter-spacing:1px}.audit{font-size:13px}.column-label{font-size:14px;font-weight:800}.column-sub{font-size:11px}.left{text-anchor:start}.group{font-size:12px;font-weight:900;letter-spacing:1px}.row-label{font-size:15px;font-weight:800}.detail{font-size:12px;fill:#5f6a63}.direction{font-size:9px;font-weight:900;fill:#0f766e}.value{font-size:20px}.value.winner{font-weight:900;fill:#fff}.value.runner{font-weight:800}.rank{font-size:9px;font-weight:900;letter-spacing:1px}.rank.winner{fill:#fff}.receipt{font-size:12px}</style><rect x="0" y="0" width="1600" height="1816" fill="#f7f2e8"/><rect x="42" y="32" width="1516" height="1742" fill="#fff" stroke="#17231d" stroke-width="2"/><text x="78" y="78" class="tag">REHABILITATED</text><text x="78" y="130" class="title">Coding, agent, and reasoning benchmarks</text><text x="78" y="164" class="meta">Reported score · points · winners recomputed per row</text><rect x="78" y="190" width="1444" height="88" fill="#fff8df" stroke="#17231d" stroke-width="1.5"/><text x="98" y="218" class="audit-title">CHART-CRIME REPORT</text><text x="98" y="244" class="audit">• Source styling is ignored; every highlight is recomputed from the numeric values.</text><text x="98" y="266" class="audit">• Qwen3.8-27B is visually emphasized in the source but does not win 4 of 13 rows.</text><rect x="78" y="300" width="400" height="82" fill="#17231d"/><text x="98" y="347" class="column-label left" style="fill:#ffffff">Benchmark</text><rect x="478" y="300" width="208.8" height="82" fill="#17231d" stroke="#5e6b64"/><text x="582.4" y="335" class="column-label" style="fill:#ffffff" text-anchor="middle">Qwen3.8-27B</text><text x="582.4" y="359" class="column-sub" style="fill:#b8c6be" text-anchor="middle">9 wins</text><rect x="686.8" y="300" width="208.8" height="82" fill="#17231d" stroke="#5e6b64"/><text x="791.1999999999999" y="335" class="column-label" style="fill:#ffffff" text-anchor="middle">Qwen3.6-27B</text><text x="791.1999999999999" y="359" class="column-sub" style="fill:#b8c6be" text-anchor="middle">0 wins</text><rect x="895.6" y="300" width="208.8" height="82" fill="#17231d" stroke="#5e6b64"/><text x="1000" y="335" class="column-label" style="fill:#ffffff" text-anchor="middle">Qwen3.7-Plus</text><text x="1000" y="359" class="column-sub" style="fill:#b8c6be" text-anchor="middle">0 wins</text><rect x="1104.4" y="300" width="208.8" height="82" fill="#17231d" stroke="#5e6b64"/><text x="1208.8000000000002" y="335" class="column-label" style="fill:#ffffff" text-anchor="middle">Muse Glimmer-30B</text><text x="1208.8000000000002" y="359" class="column-sub" style="fill:#b8c6be" text-anchor="middle">0 wins</text><rect x="1313.2" y="300" width="208.8" height="82" fill="#17231d" stroke="#5e6b64"/><text x="1417.6000000000001" y="335" class="column-label" style="fill:#ffffff" text-anchor="middle">Opus4.6 Max</text><text x="1417.6000000000001" y="359" class="column-sub" style="fill:#b8c6be" text-anchor="middle">4 wins</text><rect x="78" y="382" width="1444" height="34" fill="#d7ded9" stroke="#aab4ae"/><text x="98" y="405" class="group">CODING</text><rect x="78" y="416" width="400" height="84" fill="#f4f5f2" stroke="#cad0cc"/><text x="98" y="447" class="row-label">Agentic terminal coding</text><text x="98" y="469" class="detail">Terminal Bench 2.1 (Terminus)</text><text x="98" y="488" class="direction">↑ HIGHER IS BETTER</text><rect x="478" y="416" width="208.8" height="84" fill="#dbeafe" stroke="#cad0cc" stroke-width="1"/><text x="582.4" y="455" class="value runner" text-anchor="middle">73</text><text x="582.4" y="479" class="rank" text-anchor="middle">2ND</text><rect x="686.8" y="416" width="208.8" height="84" fill="#fff" stroke="#cad0cc" stroke-width="1"/><text x="791.1999999999999" y="455" class="value" text-anchor="middle">63.4</text><rect x="895.6" y="416" width="208.8" height="84" fill="#fff" stroke="#cad0cc" stroke-width="1"/><text x="1000" y="455" class="value" text-anchor="middle">64</text><rect x="1104.4" y="416" width="208.8" height="84" fill="#fff" stroke="#cad0cc" stroke-width="1"/><text x="1208.8000000000002" y="455" class="value" text-anchor="middle">51.7</text><rect x="1313.2" y="416" width="208.8" height="84" fill="#0f766e" stroke="#084c47" stroke-width="3"/><text x="1417.6000000000001" y="455" class="value winner" text-anchor="middle">78.2</text><text x="1417.6000000000001" y="479" class="rank winner" text-anchor="middle">WINNER</text><rect x="78" y="500" width="400" height="84" fill="#f4f5f2" stroke="#cad0cc"/><text x="98" y="531" class="row-label">Agentic coding</text><text x="98" y="553" class="detail">SWE-bench Pro</text><text x="98" y="572" class="direction">↑ HIGHER IS BETTER</text><rect x="478" y="500" width="208.8" height="84" fill="#0f766e" stroke="#084c47" stroke-width="3"/><text x="582.4" y="539" class="value winner" text-anchor="middle">61.7</text><text x="582.4" y="563" class="rank winner" text-anchor="middle">WINNER</text><rect x="686.8" y="500" width="208.8" height="84" fill="#fff" stroke="#cad0cc" stroke-width="1"/><text x="791.1999999999999" y="539" class="value" text-anchor="middle">53.5</text><rect x="895.6" y="500" width="208.8" height="84" fill="#dbeafe" stroke="#cad0cc" stroke-width="1"/><text x="1000" y="539" class="value runner" text-anchor="middle">57.6</text><text x="1000" y="563" class="rank" text-anchor="middle">2ND</text><rect x="1104.4" y="500" width="208.8" height="84" fill="#fff" stroke="#cad0cc" stroke-width="1"/><text x="1208.8000000000002" y="539" class="value" text-anchor="middle">51.2</text><rect x="1313.2" y="500" width="208.8" height="84" fill="#fff" stroke="#cad0cc" stroke-width="1"/><text x="1417.6000000000001" y="539" class="value" text-anchor="middle">53.4</text><rect x="78" y="584" width="400" height="84" fill="#f4f5f2" stroke="#cad0cc"/><text x="98" y="615" class="row-label">Repo-level code generation</text><text x="98" y="637" class="detail">NL2Repo-Bench</text><text x="98" y="656" class="direction">↑ HIGHER IS BETTER</text><rect x="478" y="584" width="208.8" height="84" fill="#dbeafe" stroke="#cad0cc" stroke-width="1"/><text x="582.4" y="623" class="value runner" text-anchor="middle">42.3</text><text x="582.4" y="647" class="rank" text-anchor="middle">2ND</text><rect x="686.8" y="584" width="208.8" height="84" fill="#fff" stroke="#cad0cc" stroke-width="1"/><text x="791.1999999999999" y="623" class="value" text-anchor="middle">36.2</text><rect x="895.6" y="584" width="208.8" height="84" fill="#fff" stroke="#cad0cc" stroke-width="1"/><text x="1000" y="623" class="value" text-anchor="middle">41.1</text><rect x="1104.4" y="584" width="208.8" height="84" fill="url(#missing)" stroke="#cad0cc" stroke-width="1"/><text x="1208.8000000000002" y="623" class="value" text-anchor="middle">—</text><text x="1208.8000000000002" y="647" class="rank" text-anchor="middle">NO DATA</text><rect x="1313.2" y="584" width="208.8" height="84" fill="#0f766e" stroke="#084c47" stroke-width="3"/><text x="1417.6000000000001" y="623" class="value winner" text-anchor="middle">47.6</text><text x="1417.6000000000001" y="647" class="rank winner" text-anchor="middle">WINNER</text><rect x="78" y="668" width="400" height="84" fill="#f4f5f2" stroke="#cad0cc"/><text x="98" y="699" class="row-label">Agentic coding</text><text x="98" y="721" class="detail">DeepSWE 1.1</text><text x="98" y="740" class="direction">↑ HIGHER IS BETTER</text><rect x="478" y="668" width="208.8" height="84" fill="#0f766e" stroke="#084c47" stroke-width="3"/><text x="582.4" y="707" class="value winner" text-anchor="middle">42.2</text><text x="582.4" y="731" class="rank winner" text-anchor="middle">WINNER</text><rect x="686.8" y="668" width="208.8" height="84" fill="#fff" stroke="#cad0cc" stroke-width="1"/><text x="791.1999999999999" y="707" class="value" text-anchor="middle">13.3</text><rect x="895.6" y="668" width="208.8" height="84" fill="#dbeafe" stroke="#cad0cc" stroke-width="1"/><text x="1000" y="707" class="value runner" text-anchor="middle">14.2</text><text x="1000" y="731" class="rank" text-anchor="middle">2ND</text><rect x="1104.4" y="668" width="208.8" height="84" fill="url(#missing)" stroke="#cad0cc" stroke-width="1"/><text x="1208.8000000000002" y="707" class="value" text-anchor="middle">—</text><text x="1208.8000000000002" y="731" class="rank" text-anchor="middle">NO DATA</text><rect x="1313.2" y="668" width="208.8" height="84" fill="url(#missing)" stroke="#cad0cc" stroke-width="1"/><text x="1417.6000000000001" y="707" class="value" text-anchor="middle">—</text><text x="1417.6000000000001" y="731" class="rank" text-anchor="middle">NO DATA</text><rect x="78" y="752" width="400" height="84" fill="#f4f5f2" stroke="#cad0cc"/><text x="98" y="783" class="row-label">Software engineering</text><text x="98" y="805" class="detail">QwenSWEBench</text><text x="98" y="824" class="direction">↑ HIGHER IS BETTER</text><rect x="478" y="752" width="208.8" height="84" fill="#0f766e" stroke="#084c47" stroke-width="3"/><text x="582.4" y="791" class="value winner" text-anchor="middle">79</text><text x="582.4" y="815" class="rank winner" text-anchor="middle">WINNER</text><rect x="686.8" y="752" width="208.8" height="84" fill="#fff" stroke="#cad0cc" stroke-width="1"/><text x="791.1999999999999" y="791" class="value" text-anchor="middle">49.3</text><rect x="895.6" y="752" width="208.8" height="84" fill="#fff" stroke="#cad0cc" stroke-width="1"/><text x="1000" y="791" class="value" text-anchor="middle">59.2</text><rect x="1104.4" y="752" width="208.8" height="84" fill="url(#missing)" stroke="#cad0cc" stroke-width="1"/><text x="1208.8000000000002" y="791" class="value" text-anchor="middle">—</text><text x="1208.8000000000002" y="815" class="rank" text-anchor="middle">NO DATA</text><rect x="1313.2" y="752" width="208.8" height="84" fill="#dbeafe" stroke="#cad0cc" stroke-width="1"/><text x="1417.6000000000001" y="791" class="value runner" text-anchor="middle">63.8</text><text x="1417.6000000000001" y="815" class="rank" text-anchor="middle">2ND</text><rect x="78" y="836" width="1444" height="34" fill="#d7ded9" stroke="#aab4ae"/><text x="98" y="859" class="group">AGENT</text><rect x="78" y="870" width="400" height="84" fill="#f4f5f2" stroke="#cad0cc"/><text x="98" y="901" class="row-label">Long-horizon office work</text><text x="98" y="923" class="detail">CoWorkBench</text><text x="98" y="942" class="direction">↑ HIGHER IS BETTER</text><rect x="478" y="870" width="208.8" height="84" fill="#0f766e" stroke="#084c47" stroke-width="3"/><text x="582.4" y="909" class="value winner" text-anchor="middle">70.7</text><text x="582.4" y="933" class="rank winner" text-anchor="middle">WINNER</text><rect x="686.8" y="870" width="208.8" height="84" fill="#fff" stroke="#cad0cc" stroke-width="1"/><text x="791.1999999999999" y="909" class="value" text-anchor="middle">61</text><rect x="895.6" y="870" width="208.8" height="84" fill="#fff" stroke="#cad0cc" stroke-width="1"/><text x="1000" y="909" class="value" text-anchor="middle">65.1</text><rect x="1104.4" y="870" width="208.8" height="84" fill="url(#missing)" stroke="#cad0cc" stroke-width="1"/><text x="1208.8000000000002" y="909" class="value" text-anchor="middle">—</text><text x="1208.8000000000002" y="933" class="rank" text-anchor="middle">NO DATA</text><rect x="1313.2" y="870" width="208.8" height="84" fill="#dbeafe" stroke="#cad0cc" stroke-width="1"/><text x="1417.6000000000001" y="909" class="value runner" text-anchor="middle">68.2</text><text x="1417.6000000000001" y="933" class="rank" text-anchor="middle">2ND</text><rect x="78" y="954" width="400" height="84" fill="#f4f5f2" stroke="#cad0cc"/><text x="98" y="985" class="row-label">Professional job tasks</text><text x="98" y="1007" class="detail">JobBench</text><text x="98" y="1026" class="direction">↑ HIGHER IS BETTER</text><rect x="478" y="954" width="208.8" height="84" fill="#0f766e" stroke="#084c47" stroke-width="3"/><text x="582.4" y="993" class="value winner" text-anchor="middle">33.4</text><text x="582.4" y="1017" class="rank winner" text-anchor="middle">WINNER</text><rect x="686.8" y="954" width="208.8" height="84" fill="#fff" stroke="#cad0cc" stroke-width="1"/><text x="791.1999999999999" y="993" class="value" text-anchor="middle">21.8</text><rect x="895.6" y="954" width="208.8" height="84" fill="#dbeafe" stroke="#cad0cc" stroke-width="1"/><text x="1000" y="993" class="value runner" text-anchor="middle">27.6</text><text x="1000" y="1017" class="rank" text-anchor="middle">2ND</text><rect x="1104.4" y="954" width="208.8" height="84" fill="url(#missing)" stroke="#cad0cc" stroke-width="1"/><text x="1208.8000000000002" y="993" class="value" text-anchor="middle">—</text><text x="1208.8000000000002" y="1017" class="rank" text-anchor="middle">NO DATA</text><rect x="1313.2" y="954" width="208.8" height="84" fill="url(#missing)" stroke="#cad0cc" stroke-width="1"/><text x="1417.6000000000001" y="993" class="value" text-anchor="middle">—</text><text x="1417.6000000000001" y="1017" class="rank" text-anchor="middle">NO DATA</text><rect x="78" y="1038" width="400" height="84" fill="#f4f5f2" stroke="#cad0cc"/><text x="98" y="1069" class="row-label">Frontier agentic tasks — Pass@1</text><text x="98" y="1091" class="detail">Agents' Last Exam</text><text x="98" y="1110" class="direction">↑ HIGHER IS BETTER</text><rect x="478" y="1038" width="208.8" height="84" fill="#0f766e" stroke="#084c47" stroke-width="3"/><text x="582.4" y="1077" class="value winner" text-anchor="middle">20.4</text><text x="582.4" y="1101" class="rank winner" text-anchor="middle">WINNER</text><rect x="686.8" y="1038" width="208.8" height="84" fill="#fff" stroke="#cad0cc" stroke-width="1"/><text x="791.1999999999999" y="1077" class="value" text-anchor="middle">10.6</text><rect x="895.6" y="1038" width="208.8" height="84" fill="#dbeafe" stroke="#cad0cc" stroke-width="1"/><text x="1000" y="1077" class="value runner" text-anchor="middle">13.2</text><text x="1000" y="1101" class="rank" text-anchor="middle">2ND</text><rect x="1104.4" y="1038" width="208.8" height="84" fill="url(#missing)" stroke="#cad0cc" stroke-width="1"/><text x="1208.8000000000002" y="1077" class="value" text-anchor="middle">—</text><text x="1208.8000000000002" y="1101" class="rank" text-anchor="middle">NO DATA</text><rect x="1313.2" y="1038" width="208.8" height="84" fill="url(#missing)" stroke="#cad0cc" stroke-width="1"/><text x="1417.6000000000001" y="1077" class="value" text-anchor="middle">—</text><text x="1417.6000000000001" y="1101" class="rank" text-anchor="middle">NO DATA</text><rect x="78" y="1122" width="400" height="84" fill="#f4f5f2" stroke="#cad0cc"/><text x="98" y="1153" class="row-label">Frontier agentic tasks — Score</text><text x="98" y="1175" class="detail">Agents' Last Exam</text><text x="98" y="1194" class="direction">↑ HIGHER IS BETTER</text><rect x="478" y="1122" width="208.8" height="84" fill="#0f766e" stroke="#084c47" stroke-width="3"/><text x="582.4" y="1161" class="value winner" text-anchor="middle">42.9</text><text x="582.4" y="1185" class="rank winner" text-anchor="middle">WINNER</text><rect x="686.8" y="1122" width="208.8" height="84" fill="#fff" stroke="#cad0cc" stroke-width="1"/><text x="791.1999999999999" y="1161" class="value" text-anchor="middle">27.3</text><rect x="895.6" y="1122" width="208.8" height="84" fill="#dbeafe" stroke="#cad0cc" stroke-width="1"/><text x="1000" y="1161" class="value runner" text-anchor="middle">33.6</text><text x="1000" y="1185" class="rank" text-anchor="middle">2ND</text><rect x="1104.4" y="1122" width="208.8" height="84" fill="url(#missing)" stroke="#cad0cc" stroke-width="1"/><text x="1208.8000000000002" y="1161" class="value" text-anchor="middle">—</text><text x="1208.8000000000002" y="1185" class="rank" text-anchor="middle">NO DATA</text><rect x="1313.2" y="1122" width="208.8" height="84" fill="url(#missing)" stroke="#cad0cc" stroke-width="1"/><text x="1417.6000000000001" y="1161" class="value" text-anchor="middle">—</text><text x="1417.6000000000001" y="1185" class="rank" text-anchor="middle">NO DATA</text><rect x="78" y="1206" width="1444" height="34" fill="#d7ded9" stroke="#aab4ae"/><text x="98" y="1229" class="group">GENERAL</text><rect x="78" y="1240" width="400" height="84" fill="#f4f5f2" stroke="#cad0cc"/><text x="98" y="1271" class="row-label">Instruction following</text><text x="98" y="1293" class="detail">IFBench</text><text x="98" y="1312" class="direction">↑ HIGHER IS BETTER</text><rect x="478" y="1240" width="208.8" height="84" fill="#0f766e" stroke="#084c47" stroke-width="3"/><text x="582.4" y="1279" class="value winner" text-anchor="middle">79.5</text><text x="582.4" y="1303" class="rank winner" text-anchor="middle">WINNER</text><rect x="686.8" y="1240" width="208.8" height="84" fill="#fff" stroke="#cad0cc" stroke-width="1"/><text x="791.1999999999999" y="1279" class="value" text-anchor="middle">69.1</text><rect x="895.6" y="1240" width="208.8" height="84" fill="#dbeafe" stroke="#cad0cc" stroke-width="1"/><text x="1000" y="1279" class="value runner" text-anchor="middle">79.1</text><text x="1000" y="1303" class="rank" text-anchor="middle">2ND</text><rect x="1104.4" y="1240" width="208.8" height="84" fill="#fff" stroke="#cad0cc" stroke-width="1"/><text x="1208.8000000000002" y="1279" class="value" text-anchor="middle">77</text><rect x="1313.2" y="1240" width="208.8" height="84" fill="#fff" stroke="#cad0cc" stroke-width="1"/><text x="1417.6000000000001" y="1279" class="value" text-anchor="middle">62.5</text><rect x="78" y="1324" width="400" height="84" fill="#f4f5f2" stroke="#cad0cc"/><text x="98" y="1355" class="row-label">Scientific reasoning</text><text x="98" y="1377" class="detail">GPQA Diamond</text><text x="98" y="1396" class="direction">↑ HIGHER IS BETTER</text><rect x="478" y="1324" width="208.8" height="84" fill="#fff" stroke="#cad0cc" stroke-width="1"/><text x="582.4" y="1363" class="value" text-anchor="middle">89.2</text><rect x="686.8" y="1324" width="208.8" height="84" fill="#fff" stroke="#cad0cc" stroke-width="1"/><text x="791.1999999999999" y="1363" class="value" text-anchor="middle">87.8</text><rect x="895.6" y="1324" width="208.8" height="84" fill="#dbeafe" stroke="#cad0cc" stroke-width="1"/><text x="1000" y="1363" class="value runner" text-anchor="middle">90.3</text><text x="1000" y="1387" class="rank" text-anchor="middle">2ND</text><rect x="1104.4" y="1324" width="208.8" height="84" fill="#fff" stroke="#cad0cc" stroke-width="1"/><text x="1208.8000000000002" y="1363" class="value" text-anchor="middle">83.5</text><rect x="1313.2" y="1324" width="208.8" height="84" fill="#0f766e" stroke="#084c47" stroke-width="3"/><text x="1417.6000000000001" y="1363" class="value winner" text-anchor="middle">91.3</text><text x="1417.6000000000001" y="1387" class="rank winner" text-anchor="middle">WINNER</text><rect x="78" y="1408" width="400" height="84" fill="#f4f5f2" stroke="#cad0cc"/><text x="98" y="1439" class="row-label">Multidisciplinary reasoning</text><text x="98" y="1461" class="detail">HLE</text><text x="98" y="1480" class="direction">↑ HIGHER IS BETTER</text><rect x="478" y="1408" width="208.8" height="84" fill="#fff" stroke="#cad0cc" stroke-width="1"/><text x="582.4" y="1447" class="value" text-anchor="middle">30.8</text><rect x="686.8" y="1408" width="208.8" height="84" fill="#fff" stroke="#cad0cc" stroke-width="1"/><text x="791.1999999999999" y="1447" class="value" text-anchor="middle">24</text><rect x="895.6" y="1408" width="208.8" height="84" fill="#dbeafe" stroke="#cad0cc" stroke-width="1"/><text x="1000" y="1447" class="value runner" text-anchor="middle">34.7</text><text x="1000" y="1471" class="rank" text-anchor="middle">2ND</text><rect x="1104.4" y="1408" width="208.8" height="84" fill="#fff" stroke="#cad0cc" stroke-width="1"/><text x="1208.8000000000002" y="1447" class="value" text-anchor="middle">22</text><rect x="1313.2" y="1408" width="208.8" height="84" fill="#0f766e" stroke="#084c47" stroke-width="3"/><text x="1417.6000000000001" y="1447" class="value winner" text-anchor="middle">40</text><text x="1417.6000000000001" y="1471" class="rank winner" text-anchor="middle">WINNER</text><rect x="78" y="1492" width="400" height="84" fill="#f4f5f2" stroke="#cad0cc"/><text x="98" y="1523" class="row-label">Competitive coding</text><text x="98" y="1545" class="detail">LiveCodeBench v6</text><text x="98" y="1564" class="direction">↑ HIGHER IS BETTER</text><rect x="478" y="1492" width="208.8" height="84" fill="#0f766e" stroke="#084c47" stroke-width="3"/><text x="582.4" y="1531" class="value winner" text-anchor="middle">90.3</text><text x="582.4" y="1555" class="rank winner" text-anchor="middle">WINNER</text><rect x="686.8" y="1492" width="208.8" height="84" fill="#fff" stroke="#cad0cc" stroke-width="1"/><text x="791.1999999999999" y="1531" class="value" text-anchor="middle">83.9</text><rect x="895.6" y="1492" width="208.8" height="84" fill="#dbeafe" stroke="#cad0cc" stroke-width="1"/><text x="1000" y="1531" class="value runner" text-anchor="middle">89.6</text><text x="1000" y="1555" class="rank" text-anchor="middle">2ND</text><rect x="1104.4" y="1492" width="208.8" height="84" fill="url(#missing)" stroke="#cad0cc" stroke-width="1"/><text x="1208.8000000000002" y="1531" class="value" text-anchor="middle">—</text><text x="1208.8000000000002" y="1555" class="rank" text-anchor="middle">NO DATA</text><rect x="1313.2" y="1492" width="208.8" height="84" fill="#fff" stroke="#cad0cc" stroke-width="1"/><text x="1417.6000000000001" y="1531" class="value" text-anchor="middle">88.8</text><line x1="78" y1="1606" x2="1522" y2="1606" stroke="#17231d"/><text x="78" y="1640" class="receipt">Interpretation: No model wins every row. Emphasis belongs on each row's actual winner, not on one favored column.</text><text x="78" y="1670" class="receipt">Source: User-supplied benchmark screenshot; primary source URL not visible</text><text x="78" y="1700" class="receipt">Caveat: Transcribed from the supplied image. Verify values, harnesses, model versions, and footnotes against the primary source before publishing.</text></svg>